<svg version="1.2" xmlns="http://www.w3.org/2000/svg" viewBox="0 0 700 700" width="700" height="700">
	<style>
		.s0 { fill: #181818 } 
	</style>
	<g id="Layer 1">
		<path id="Forme 4" fill-rule="evenodd" class="s0" d="m617.09 18.8c0 0-205.14 0-209.86 0-4.72 0-8.34 0.88-14.26 8.22-5.93 7.34-130.87 172.94-130.87 172.94l354.99-0.26"/>
		<path id="Forme 5" fill-rule="evenodd" class="s0" d="m82.31 380.28c0 0 0-150.88 0-161.12 0-10.24 11.69-19.46 20.26-19.46 8.57 0 159.85 0 159.85 0 0 0 0 140.36 0 154.6 0 10.61-5.79 25.98-22.03 25.98"/>
		<path id="Forme 4 copy" fill-rule="evenodd" class="s0" d="m82.31 681.09c0 0 205.07 0.07 209.79 0.07 4.72 0 8.34-0.88 14.26-8.21 5.92-7.34 131.96-172.36 131.96-172.36l-355.94-0.35"/>
		<path id="Forme 5 copy" fill-rule="evenodd" class="s0" d="m436.9 501.3c0 0 0-150.89 0-161.12 0-10.24 11.68-19.46 20.25-19.46 8.57 0 159.85 0 159.85 0 0 0 0 140.35 0 154.6 0 10.61-5.78 25.98-22.03 25.98"/>
	</g>
</svg>